<svg width="18" height="19" viewBox="0 0 18 19" fill="none" xmlns="http://www.w3.org/2000/svg">
<path fill-rule="evenodd" clip-rule="evenodd" d="M4.7202 1.4375C4.72998 1.4375 4.73992 1.4375 4.75 1.4375L13.2798 1.4375C13.4832 1.43748 13.6235 1.43746 13.7475 1.44884C15.1262 1.57539 16.1858 2.7145 16.302 4.10817C16.3125 4.23458 16.3125 4.37823 16.3125 4.59443L16.3125 15.6948C16.3125 16.2737 15.9507 16.7113 15.4919 16.8718C15.0295 17.0335 14.4678 16.9113 14.1241 16.4305C14.1116 16.413 14.0999 16.4048 14.0914 16.4005C14.0822 16.3958 14.0724 16.3935 14.0625 16.3935C14.0526 16.3935 14.0428 16.3958 14.0336 16.4005C14.0252 16.4048 14.0134 16.413 14.0009 16.4305L13.6764 16.8845C13.0301 17.7885 11.7199 17.7885 11.0736 16.8845C10.8761 16.6082 10.4989 16.6082 10.3014 16.8845C9.65513 17.7885 8.34488 17.7885 7.69865 16.8845C7.50113 16.6082 7.12388 16.6082 6.92636 16.8845C6.28013 17.7885 4.96987 17.7885 4.32365 16.8845L3.99913 16.4305C3.9866 16.413 3.97486 16.4048 3.96642 16.4005C3.95723 16.3958 3.9474 16.3935 3.9375 16.3935C3.92761 16.3935 3.91777 16.3958 3.90859 16.4005C3.90015 16.4048 3.88841 16.413 3.87588 16.4305C3.53219 16.9113 2.97055 17.0335 2.50811 16.8718C2.04927 16.7113 1.6875 16.2737 1.6875 15.6948V4.62296C1.6875 4.61331 1.6875 4.60381 1.6875 4.59444C1.68748 4.37824 1.68747 4.23458 1.69801 4.10817C1.81423 2.7145 2.87384 1.57539 4.25249 1.44884C4.3765 1.43746 4.51678 1.43748 4.7202 1.4375ZM4.75 2.56251C4.50537 2.56251 4.42106 2.5631 4.35532 2.56913C3.55845 2.64228 2.89324 3.31283 2.81912 4.20166C2.81299 4.27512 2.8125 4.36804 2.8125 4.62296V15.6948C2.8125 15.7406 2.82508 15.7642 2.83409 15.7765C2.84511 15.7916 2.86118 15.8035 2.87949 15.8099C2.89778 15.8163 2.9116 15.815 2.91917 15.8128C2.92297 15.8117 2.93866 15.8071 2.96067 15.7763C3.44463 15.0993 4.43037 15.0993 4.91434 15.7763L5.23886 16.2303C5.43638 16.5066 5.81362 16.5066 6.01115 16.2303C6.65737 15.3263 7.96763 15.3263 8.61386 16.2303C8.81138 16.5066 9.18863 16.5066 9.38615 16.2303C10.0324 15.3263 11.3426 15.3263 11.9889 16.2303C12.1864 16.5066 12.5636 16.5066 12.7611 16.2303L13.0857 15.7763C13.5696 15.0993 14.5554 15.0993 15.0393 15.7763C15.0614 15.8071 15.0769 15.8117 15.0807 15.8128C15.0883 15.815 15.1022 15.8163 15.1205 15.8099C15.1388 15.8035 15.1549 15.7916 15.1659 15.7765C15.1749 15.7642 15.1875 15.7406 15.1875 15.6948V4.62296C15.1875 4.36804 15.187 4.27512 15.1809 4.20166C15.1068 3.31283 14.4416 2.64228 13.6447 2.56913C13.5789 2.5631 13.4946 2.56251 13.25 2.56251H4.75ZM7.10227 6.10226C7.32194 5.88259 7.67809 5.88259 7.89776 6.10226L9.00002 7.20452L10.1023 6.10227C10.3219 5.8826 10.6781 5.8826 10.8978 6.10227C11.1174 6.32194 11.1174 6.6781 10.8978 6.89777L9.79552 8.00001L10.8978 9.10225C11.1174 9.32192 11.1174 9.67807 10.8978 9.89774C10.6781 10.1174 10.3219 10.1174 10.1023 9.89774L9.00002 8.79551L7.89778 9.89775C7.67811 10.1174 7.32195 10.1174 7.10228 9.89775C6.88261 9.67808 6.88261 9.32193 7.10228 9.10226L8.20453 8.00001L7.10227 6.89775C6.8826 6.67808 6.8826 6.32193 7.10227 6.10226ZM5.0625 12.125C5.0625 11.8143 5.31434 11.5625 5.625 11.5625H12.375C12.6857 11.5625 12.9375 11.8143 12.9375 12.125C12.9375 12.4357 12.6857 12.6875 12.375 12.6875H5.625C5.31434 12.6875 5.0625 12.4357 5.0625 12.125Z" fill="#7799B0"/>
</svg>
