<svg width="22" height="22" viewBox="0 0 22 22" fill="none" xmlns="http://www.w3.org/2000/svg">
<path fill-rule="evenodd" clip-rule="evenodd" d="M10.9426 0.25H11.0574C13.3658 0.249987 15.1748 0.249977 16.5863 0.439747C18.031 0.633986 19.1711 1.03933 20.0659 1.93414C20.9607 2.82895 21.366 3.96897 21.5603 5.41371C21.75 6.82519 21.75 8.63423 21.75 10.9426V11.0574C21.75 13.3658 21.75 15.1748 21.5603 16.5863C21.366 18.031 20.9607 19.1711 20.0659 20.0659C19.1711 20.9607 18.031 21.366 16.5863 21.5603C15.1748 21.75 13.3658 21.75 11.0574 21.75H10.9426C8.63423 21.75 6.82519 21.75 5.41371 21.5603C3.96897 21.366 2.82895 20.9607 1.93414 20.0659C1.03933 19.1711 0.633986 18.031 0.439747 16.5863C0.249977 15.1748 0.249987 13.3658 0.25 11.0574V10.9426C0.249987 8.63423 0.249977 
6.82519 0.439747 5.41371C0.633986 3.96897 1.03933 2.82895 1.93414 1.93414C2.82895 1.03933 3.96897 0.633986 5.41371 0.439747C6.82519 0.249977 8.63423 0.249987 10.9426 0.25ZM5.61358 1.92637C4.33517 2.09825 3.56445 2.42514 2.9948 2.9948C2.42514 3.56445 2.09825 4.33517 1.92637 5.61358C1.75159 6.91356 1.75 8.62177 1.75 11C1.75 13.3782 1.75159 15.0864 1.92637 16.3864C2.09825 17.6648 2.42514 18.4355 2.9948 19.0052C3.56445 19.5749 4.33517 19.9018 5.61358 20.0736C6.91356 20.2484 8.62177 20.25 11 20.25C13.3782 20.25 15.0864 20.2484 16.3864 20.0736C17.6648 19.9018 18.4355 19.5749 19.0052 19.0052C19.5749 18.4355 19.9018 17.6648 20.0736 16.3864C20.2484 15.0864 20.25 13.3782 20.25 11C20.25
 8.62177 20.2484 6.91356 20.0736 5.61358C19.9018 4.33517 19.5749 3.56445 19.0052 2.9948C18.4355 
 2.42514 17.6648 2.09825 16.3864 1.92637C15.0864 1.75159 13.3782 1.75 11 1.75C8.62177 1.75 
 6.91356 1.75159 5.61358 1.92637ZM9.948 4.25H12.052C12.9505 4.24997 13.6997 4.24995 14.2945 4.32991C14.9223 4.41432 15.4891 4.59999 15.9445 5.05546C16.4 5.51093 16.5857
  6.07773 16.6701 6.70552C16.7501 7.3003 16.75 8.04952 16.75 8.94801L16.75 9.25H18C18.4142 9.25 18.75 9.58579 18.75 10C18.75 10.4142 18.4142 10.75 18 10.75H4C3.58579 10.75 3.25 10.4142 3.25 10C3.25 9.58579 3.58579 9.25 4 9.25H5.25L5.25 8.94801C5.24997 8.04952 5.24995 7.3003 5.32991 6.70552C5.41432 6.07773 5.59999 5.51093 6.05546 5.05546C6.51093 4.59999 7.07773 4.41432 7.70552 4.32991C8.3003 4.24995 9.04952 4.24997 9.948 4.25ZM6.75 9.25H15.25V9C15.25 8.03599 15.2484 7.38843 15.1835 6.90539C15.1214 6.44393 15.0142 6.24643 14.8839 6.11612C14.7536 5.9858 14.5561 5.87858 14.0946 5.81654C13.6116 5.75159 12.964 5.75 12 5.75H10C9.03599 5.75 8.38843 5.75159 7.90539 5.81654C7.44393 5.87858 7.24643 5.9858 7.11612 6.11612C6.9858 6.24643 6.87858 6.44393 6.81654 6.90539C6.75159 7.38843 6.75 8.03599 6.75 9V9.25ZM6.25 15C6.25 14.5858 6.58579 14.25 7 14.25H15C15.4142 14.25 15.75 14.5858 15.75 15C15.75 15.4142 15.4142 15.75 15 15.75H7C6.58579 15.75 6.25 15.4142 6.25 15Z" fill="#09253a"/>
</svg>
