<svg width="36" height="36" viewBox="0 0 36 36" fill="none" xmlns="http://www.w3.org/2000/svg">
<path fill-rule="evenodd" clip-rule="evenodd" d="M9.01406 3.71533C7.02584 3.71533 5.41406 5.32711 5.41406 7.31533V29.069C5.41406 30.6046 7.07303 31.5674 8.40634 30.8055L10.7218 29.4823C11.3366 29.131 12.0915 29.131 12.7063 29.4823L17.0218 31.9483C17.6367 32.2997 18.3915 32.2997 19.0063 31.9483L23.3218 29.4823C23.9367 29.131 24.6915 29.131 25.3063 29.4823L27.6218 30.8055C28.9551 31.5674 30.6141 30.6046 30.6141 29.069V7.31533C30.6141 5.32711 29.0023 3.71533 27.0141 3.71533H9.01406ZM21.9589 14.1016C22.2518 13.8087 22.2518 13.3339 21.9589 13.041C21.666 12.7481 21.1911 12.7481 20.8983 13.041L14.0411 19.8981C13.7482 20.191 13.7482 20.6659 14.0411 20.9588C14.334 21.2517 14.8089 21.2517 15.1018 20.9588L21.9589 14.1016ZM20.8572 20.9998C21.4883 20.9998 22 20.4882 22 19.857C22 19.2258 21.4883 18.7141 20.8572 18.7141C20.226 18.7141 19.7143 19.2258 19.7143 19.857C19.7143 20.4882 20.226 20.9998 20.8572 20.9998ZM16.2857 14.1427C16.2857 14.7739 15.774 15.2856 15.1429 15.2856C14.5117 15.2856 14 14.7739 14 14.1427C14 13.5116 14.5117 12.9999 15.1429 12.9999C15.774 12.9999 16.2857 13.5116 16.2857 14.1427Z" fill="#7799B0"/>
</svg>
