<svg width="20" height="22" viewBox="0 0 20 22" fill="none" xmlns="http://www.w3.org/2000/svg">
<path fill-rule="evenodd" clip-rule="evenodd" d="M4.2936 0.250003C4.30665 0.250005 4.31989 0.250006 4.33334 0.250006L15.7064 0.250003C15.9776 0.249969 16.1647 0.249945 16.33 0.265124C18.1682 0.433854 19.581 1.95266 19.736 3.8109C19.75 3.97944 19.75 4.17098 19.75 4.45924L19.75 19.2598C19.75 20.0316 19.2676 20.6151 18.6559 20.8291C18.0393 21.0447 17.2904 20.8818 16.8322 20.2407C16.8155 20.2173 16.7998 20.2064 16.7886 20.2006C16.7763 20.1944 16.7632 20.1914 16.75 20.1914C16.7368 20.1914 16.7237 20.1944 16.7115 20.2006C16.7002 20.2064 16.6845 20.2173 16.6678 20.2407L16.2351 20.846C15.3735 22.0513 13.6265 22.0513 12.7649 20.846C12.5015 20.4776 11.9985 20.4776 11.7351 20.846C10.8735 22.0513 9.1265 22.0513 8.26487 20.846C8.0015 20.4776 7.49851 20.4776 7.23514 20.846C6.37351 22.0513 4.6265 22.0513 3.76486 20.846L3.33217 20.2407C3.31546 20.2173 3.29981 20.2064 3.28856 20.2006C3.27631 20.1944 3.2632 20.1914 3.25 20.1914C3.23681 20.1914 3.2237 20.1944 3.21145 20.2006C3.2002 20.2064 3.18455 20.2173 3.16784 20.2407C2.70958 20.8818 1.96074 21.0447 1.34414 20.8291C0.732365 20.6151 0.250004 20.0316 0.250004 19.2598V4.49727C0.250004 4.48441 0.250003 4.47174 0.250002 4.45925C0.249977 4.17098 0.249959 3.97945 0.264014 3.8109C0.418968 1.95266 1.83179 0.433854 3.66998 0.265124C3.83534 0.249945 4.02237 0.249969 4.2936 0.250003ZM4.33334 1.75001C4.00717 1.75001 3.89475 1.7508 3.80709 1.75884C2.74461 1.85637 1.85765 2.75044 1.75883 3.93555C1.75066 4.0335 1.75 4.15739 1.75 4.49727V19.2598C1.75 19.3208 1.76677 19.3522 1.77879 19.3687C1.79348 19.3888 1.8149 19.4046 1.83932 19.4132C1.8637 19.4217 1.88214 19.42 1.89223 19.4171C1.8973 19.4156 1.91821 19.4094 1.94756 19.3684C2.59285 18.4657 3.90716 18.4657 4.55245 19.3684L4.98514 19.9737C5.24851 20.3421 5.7515 20.3421 6.01487 19.9737C6.8765 18.7683 8.62351 18.7683 9.48514 19.9737C9.74851 20.3421 10.2515 20.3421 10.5149 19.9737C11.3765 18.7683 13.1235 18.7683 13.9851 19.9737C14.2485 20.3421 14.7515 20.3421 15.0149 19.9737L15.4476 19.3684C16.0928 18.4657 17.4072 18.4657 18.0525 19.3684C18.0818 19.4095 18.1026 19.4155 18.1076 19.417C18.1177 19.42 18.1363 19.4217 18.1607 19.4132C18.1851 19.4046 18.2065 19.3888 18.2212 19.3687C18.2332 19.3522 18.25 19.3208 18.25 19.2598V4.49727C18.25 4.15739 18.2493 4.03349 18.2412 3.93554C18.1424 2.75044 17.2554 1.85637 16.1929 1.75884C16.1053 1.7508 15.9928 1.75001 15.6667 1.75001H4.33334ZM7.46969 6.46968C7.76258 6.17678 8.23746 6.17678 8.53035 6.46968L10 7.93936L11.4697 6.46969C11.7626 6.1768 12.2375 6.1768 12.5304 6.46969C12.8232 6.76259 12.8232 7.23746 12.5304 7.53035L11.0607 9.00002L12.5303 10.4697C12.8232 10.7626 12.8232 11.2374 12.5303 11.5303C12.2374 11.8232 11.7626 11.8232 11.4697 11.5303L10 10.0607L8.53037 11.5303C8.23748 11.8232 7.7626 11.8232 7.46971 11.5303C7.17682 11.2374 7.17682 10.7626 7.46971 10.4697L8.93937 9.00002L7.46969 7.53034C7.1768 7.23744 7.1768 6.76257 7.46969 6.46968ZM4.75 14.5C4.75 14.0858 5.08579 13.75 5.5 13.75H14.5C14.9142 13.75 15.25 14.0858 15.25 14.5C15.25 14.9142 14.9142 15.25 14.5 15.25H5.5C5.08579 15.25 4.75 14.9142 4.75 14.5Z" fill="#7799B0"/>
</svg>
