<svg width="20" height="22" viewBox="0 0 20 22" fill="none" xmlns="http://www.w3.org/2000/svg">
<path fill-rule="evenodd" clip-rule="evenodd" d="M6.12673 2.5603C5.76931 2.24259 5.23069 2.24259 4.87327 2.5603C3.98775 3.34743 2.67284 3.38164 1.75 2.66292V19.3367C2.67284 18.618 3.98775 18.6522 4.87327 19.4394C5.23069 19.7571 5.76931 19.7571 6.12673 19.4394C7.05248 18.6165 8.44752 18.6165 9.37327 19.4394C9.73069 19.7571 10.2693 19.7571 10.6267 19.4394C11.5525 18.6165 12.9475 18.6165 13.8733 19.4394C14.2307 19.7571 14.7693 19.7571 15.1267 19.4394C16.0122 18.6522 17.3272 18.618 18.25 19.3367V2.66292C17.3272 3.38164 16.0122 3.34743 15.1267 2.5603C14.7693 2.24259 14.2307 2.24259 13.8733 2.5603C12.9475 3.38319 11.5525 3.38319 10.6267 2.5603C10.2693 2.24259 9.73069 2.24259 9.37327 2.5603C8.44752 3.38319 7.05248 3.38319 6.12673 2.5603ZM3.87673 1.43919C4.80248 0.616299 6.19752 0.616299 7.12327 1.43919C7.48069 1.7569 8.01931 1.7569 8.37673 1.43919C9.30248 0.616299 10.6975 0.616299 11.6233 1.43919C11.9807 1.7569 12.5193 1.7569 12.8767 1.43919C13.8025 0.616299 15.1975 0.616299 16.1233 1.43919C16.4807 1.7569 17.0193 1.7569 17.3767 1.43919C18.2963 0.621779 19.75 1.27458 19.75 2.50495V19.4947C19.75 20.7251 18.2963 21.3779 17.3767 20.5605C17.0193 20.2428 16.4807 20.2428 16.1233 20.5605C15.1975 21.3834 13.8025 21.3834 12.8767 20.5605C12.5193 20.2428 11.9807 20.2428 11.6233 20.5605C10.6975 21.3834 9.30248 21.3834 8.37673 20.5605C8.01931 20.2428 7.48069 20.2428 7.12327 20.5605C6.19752 21.3834 4.80248 21.3834 3.87673 20.5605C3.51931 20.2428 2.98069 20.2428 2.62327 20.5605C1.70369 21.3779 0.25 20.7251 0.25 19.4947V2.50495C0.25 1.27458 1.70369 0.621779 2.62327 1.43919C2.98069 1.7569 3.51931 1.7569 3.87673 1.43919ZM4.75 7.49992C4.75 7.08571 5.08579 6.74992 5.5 6.74992H14.5C14.9142 6.74992 15.25 7.08571 15.25 7.49992C15.25 7.91414 14.9142 8.24992 14.5 8.24992H5.5C5.08579 8.24992 4.75 7.91414 4.75 7.49992ZM4.75 10.9999C4.75 10.5857 5.08579 10.2499 5.5 10.2499H14.5C14.9142 10.2499 15.25 10.5857 15.25 10.9999C15.25 11.4141 14.9142 11.7499 14.5 11.7499H5.5C5.08579 11.7499 4.75 11.4141 4.75 10.9999ZM4.75 14.4999C4.75 14.0857 5.08579 13.7499 5.5 13.7499H14.5C14.9142 13.7499 15.25 14.0857 15.25 14.4999C15.25 14.9141 14.9142 15.2499 14.5 15.2499H5.5C5.08579 15.2499 4.75 14.9141 4.75 14.4999Z" fill="#7799B0"/>
</svg>
