<svg width="20" height="22" viewBox="0 0 20 22" fill="none" xmlns="http://www.w3.org/2000/svg">
<path fill-rule="evenodd" clip-rule="evenodd" d="M5.09878 0.250041C5.14683 0.250062 5.19559 0.250083 5.24508 0.250083H14.7551C14.8045 0.250083 14.8533 0.250062 14.9014 0.250041C15.9181 0.249595 16.6178 0.249289 17.2072 0.454346C18.3201 0.841609 19.1842 1.73726 19.5547 2.86559L18.8421 3.09954L19.5547 2.86559C19.7507 3.46271 19.7505 4.17254 19.7501 5.22655C19.7501 5.27372 19.7501 5.32158 19.7501 5.37014V19.3743C19.7501 20.8395 18.0231 21.7118 16.8857 20.671C16.8062 20.5983 16.694 20.5983 16.6145 20.671L16.1314 21.1131C15.2032 21.9624 13.7969 21.9624 12.8688 21.1131C12.5138 20.7882 11.9864 20.7882 11.6314 21.1131C10.7032 21.9624 9.29694 21.9624 8.36875 21.1131C8.01377 20.7882 7.48637 20.7882 7.13138 21.1131C6.20319 21.9624 4.79694 21.9624 3.86875 21.1131L3.38566 20.671C3.30618 20.5983 3.19395 20.5983 3.11448 20.671C1.97705 21.7118 0.250067 20.8395 0.250067 19.3743V5.37014C0.250067 5.32158 0.25005 5.27372 0.250033 5.22655C0.249651 4.17255 0.249394 3.46271 0.445446 2.86559C0.815907 1.73726 1.68002 0.841609 2.79298 0.454346C3.3823 0.249289 4.08203 0.249595 5.09878 0.250041ZM5.24508 1.75008C4.024 1.75008 3.6034 1.76057 3.28593 1.87103C2.62655 2.10047 2.09919 2.63728 1.8706 3.3335C1.75951 3.67183 1.75007 4.11796 1.75007 5.37014V19.3743C1.75007 19.4933 1.80999 19.5661 1.88517 19.6009C1.92434 19.619 1.96264 19.6237 1.99456 19.6194C2.0227 19.6156 2.05911 19.6035 2.10185 19.5644C2.75453 18.9671 3.74561 18.9671 4.39828 19.5644L4.88138 20.0065C5.23637 20.3313 5.76377 20.3313 6.11875 20.0065C7.04694 19.1571 8.4532 19.1571 9.38138 20.0065C9.73637 20.3313 10.2638 20.3313 10.6188 20.0065C11.5469 19.1571 12.9532 19.1571 13.8814 20.0065C14.2364 20.3313 14.7638 20.3313 15.1188 20.0065L15.6019 19.5644C16.2545 18.9671 17.2456 18.9671 17.8983 19.5644C17.941 19.6035 17.9774 19.6156 18.0056 19.6194C18.0375 19.6237 18.0758 19.619 18.115 19.6009C18.1901 19.5661 18.2501 19.4934 18.2501 19.3743V5.37014C18.2501 4.11797 18.2406 3.67183 18.1295 3.3335C17.9009 2.63728 17.3736 2.10047 16.7142 1.87103C16.3967 1.76057 15.9761 1.75008 14.7551 1.75008H5.24508ZM12.9996 6.44063C13.3086 6.7165 13.3354 7.19062 13.0595 7.49959L9.48809 11.4996C9.3458 11.659 9.14229 11.7501 8.92864 11.7501C8.71499 11.7501 8.51148 11.659 8.36919 11.4996L6.94061 9.89959C6.66474 9.59062 6.69158 9.1165 7.00056 8.84063C7.30953 8.56476 7.78365 8.59159 8.05952 8.90057L8.92864 9.87398L11.9406 6.50057C12.2165 6.19159 12.6906 6.16476 12.9996 6.44063ZM4.75007 14.5001C4.75007 14.0859 5.08585 13.7501 5.50007 13.7501H14.5001C14.9143 13.7501 15.2501 14.0859 15.2501 14.5001C15.2501 14.9143 14.9143 15.2501 14.5001 15.2501H5.50007C5.08585 15.2501 4.75007 14.9143 4.75007 14.5001Z" fill="#09253a"/>
</svg>
