<svg width="36" height="36" viewBox="0 0 36 36" fill="none" xmlns="http://www.w3.org/2000/svg">
<path d="M12.9141 11.9653C12.9141 11.5516 13.2494 11.2153 13.6631 11.2153C14.0768 11.2153 14.4122 11.5516 14.4122 11.9653C14.4122 12.379 14.0768 12.7153 13.6631 12.7153C13.2494 12.7153 12.9141 12.379 12.9141 11.9653Z" fill="#7799B0"/>
<path d="M21.9084 11.9653C21.9084 11.5516 22.2438 11.2153 22.6575 11.2153C23.0712 11.2153 23.4066 11.5516 23.4066 11.9653C23.4066 12.379 23.0712 12.7153 22.6575 12.7153C22.2438 12.7153 21.9084 12.379 21.9084 11.9653Z" fill="#7799B0"/>
<path d="M12.9141 20.9653C12.9141 20.5516 13.2494 20.2153 13.6631 20.2153C14.0768 20.2153 14.4122 20.5516 14.4122 20.9653C14.4122 21.379 14.0768 21.7153 13.6631 21.7153C13.2494 21.7153 12.9141 21.379 12.9141 20.9653Z" fill="#7799B0"/>
<path fill-rule="evenodd" clip-rule="evenodd" d="M5.41406 7.31533C5.41406 5.32711 7.02584 3.71533 9.01406 3.71533H27.0141C29.0023 3.71533 30.6141 5.32711 30.6141 7.31533V29.069C30.6141 30.6046 28.9551 31.5674 27.6218 30.8055L25.3063 29.4823C24.6915 29.131 23.9367 29.131 23.3218 29.4823L19.0063 31.9483C18.3915 32.2997 17.6367 32.2997 17.0218 31.9483L12.7063 29.4823C12.0915 29.131 11.3366 29.131 10.7218 29.4823L8.40634 30.8055C7.07303 31.5674 5.41406 30.6046 5.41406 29.069V7.31533ZM12.9136 9.71533C12.085 9.71533 11.4141 10.3874 11.4141 11.2153V12.7153C11.4141 13.5433 12.085 14.2153 12.9136 14.2153H14.4127C15.2413 14.2153 15.9122 13.5433 15.9122 12.7153V11.2153C15.9122 10.3874 15.2413 9.71533 14.4127 9.71533H12.9136ZM18.9103 10.4653C18.9103 10.0511 18.5745 9.71533 18.1603 9.71533C17.7461 9.71533 17.4103 10.0511 17.4103 10.4653V11.2153C17.4103 11.6295 17.7461 11.9653 18.1603 11.9653C18.5745 11.9653 18.9103 11.6295 18.9103 11.2153V10.4653ZM21.908 9.71533C21.0793 9.71533 20.4084 10.3874 20.4084 11.2153V12.7153C20.4084 13.5433 21.0793 14.2153 21.908 14.2153H23.407C24.2357 14.2153 24.9066 13.5433 24.9066 12.7153V11.2153C24.9066 10.3874 24.2357 9.71533 23.407 9.71533H21.908ZM18.9103 14.2153C18.9103 13.8011 18.5745 13.4653 18.1603 13.4653C17.7461 13.4653 17.4103 13.8011 17.4103 14.2153V16.4653C17.4103 16.8795 17.7461 17.2153 18.1603 17.2153H21.1659C21.5802 17.2153 21.9159 16.8795 21.9159 16.4653C21.9159 16.0511 21.5802 15.7153 21.1659 15.7153H20.4103C19.5819 15.7153 18.9103 15.0438 18.9103 14.2153ZM12.1641 15.7153C11.7498 15.7153 11.4141 16.0511 11.4141 16.4653C11.4141 16.8795 11.7498 17.2153 12.1641 17.2153H15.1622C15.5764 17.2153 15.9122 16.8795 15.9122 16.4653C15.9122 16.0511 15.5764 15.7153 15.1622 15.7153H12.1641ZM24.1566 15.7153C23.7424 15.7153 23.4066 16.0511 23.4066 16.4653C23.4066 16.8795 23.7424 17.2153 24.1566 17.2153H24.1641C24.5783 17.2153 24.9141 16.8795 24.9141 16.4653C24.9141 16.0511 24.5783 15.7153 24.1641 15.7153H24.1566ZM12.9136 18.7153C12.085 18.7153 11.4141 19.3873 11.4141 20.2153V21.7153C11.4141 22.5433 12.085 23.2153 12.9136 23.2153H14.4127C15.2413 23.2153 15.9122 22.5433 15.9122 21.7153V20.2153C15.9122 19.3873 15.2413 18.7153 14.4127 18.7153H12.9136ZM18.1603 18.7153C17.7461 18.7153 17.4103 19.0511 17.4103 19.4653V22.4653C17.4103 22.8795 17.7461 23.2153 18.1603 23.2153C18.5745 23.2153 18.9103 22.8795 18.9103 22.4653V20.9644C18.9103 20.5507 19.2457 20.2153 19.6594 20.2153C20.0736 20.2153 20.4094 19.8795 20.4094 19.4653C20.4094 19.0511 20.0736 18.7153 19.6594 18.7153H18.1603ZM22.6575 18.7153C22.2433 18.7153 21.9075 19.0511 21.9075 19.4653C21.9075 19.8795 22.2433 20.2153 22.6575 20.2153H24.1566C24.5708 20.2153 24.9066 19.8795 24.9066 19.4653C24.9066 19.0511 24.5708 18.7153 24.1566 18.7153H22.6575ZM21.1584 21.7153C20.7442 21.7153 20.4084 22.0511 20.4084 22.4653C20.4084 22.8795 20.7442 23.2153 21.1584 23.2153H24.1566C24.5708 23.2153 24.9066 22.8795 24.9066 22.4653C24.9066 22.0511 24.5708 21.7153 24.1566 21.7153H21.1584Z" fill="#7799B0"/>
</svg>
