<svg width="20" height="22" viewBox="0 0 20 22" fill="none" xmlns="http://www.w3.org/2000/svg">
<path fill-rule="evenodd" clip-rule="evenodd" d="M9.9375 0.25H10.0625C12.1308 0.249981 13.7678 0.249966 15.0485 0.44129C16.3725 0.639075 17.4223 1.05481 18.2395 1.96274C19.0464 2.85936 19.4066 3.99222 19.5798 5.42355C19.75 6.83014 19.75 8.63498 19.75 10.9478V11.0522C19.75 13.365 19.75 15.1699 19.5798 16.5765C19.4066 18.0078 19.0464 19.1406 18.2395 20.0373C17.4223 20.9452 16.3725 21.3609 15.0485 21.5587C13.7678 21.75 12.1308 21.75 10.0625 21.75H9.93748C7.8692 21.75 6.23221 21.75 4.95147 21.5587C3.62747 21.3609 2.57769 20.9452 1.76055 20.0373C0.953594 19.1406 0.593377 18.0078 0.420184 16.5765C0.249983 15.1699 0.249991 13.365 0.25 11.0522V10.9478C0.249991 8.63499 0.249983 6.83014 0.420184 5.42355C0.593377 3.99222 0.953594 2.85936 1.76055 1.96274C2.57769 1.05481 3.62747 0.639075 4.95147 0.44129C6.23221 0.249966 7.86922 0.249981 9.9375 0.25ZM5.17309 1.92483C4.04626 2.09316 3.37637 2.40965 2.87549 2.96619C2.36443 3.53404 2.06563 4.31193 1.90932 5.60374C1.7513 6.90972 1.75 8.62385 1.75 11C1.75 13.3762 1.7513 15.0903 1.90932 16.3963C2.06563 17.6881 2.36443 18.466 2.87549 19.0338C3.37637 19.5903 4.04626 19.9068 5.17309 20.0752C6.33029 20.248 7.8552 20.25 10 20.25C12.1448 20.25 13.6697 20.248 14.8269 20.0752C15.9537 19.9068 16.6236 19.5903 17.1245 19.0338C17.6356 18.466 17.9344 17.6881 18.0907 16.3963C18.2487 15.0903 18.25 13.3762 18.25 11C18.25 8.62385 18.2487 6.90972 18.0907 5.60374C17.9344 4.31193 17.6356 3.53404 17.1245 2.96619C16.6236 2.40965 15.9537 2.09316 14.8269 1.92483C13.6697 1.75196 12.1448 1.75 10 1.75C7.8552 1.75 6.33029 1.75196 5.17309 1.92483ZM6.91612 4.24994C6.9438 4.24997 6.97176 4.25 7 4.25H13C13.0282 4.25 13.0562 4.24997 13.0839 4.24994C13.4647 4.24954 13.7932 4.24919 14.0823 4.32667C14.8588 4.53472 15.4653 5.1412 15.6733 5.91766C15.7508 6.2068 15.7505 6.53533 15.7501 6.91612C15.75 6.9438 15.75 6.97176 15.75 7C15.75 7.02824 15.75 7.0562 15.7501 7.08389C15.7505 7.46468 15.7508 7.7932 15.6733 8.08234C15.4653 8.8588 14.8588 9.46528 14.0823 9.67333C13.7932 9.75081 13.4647 9.75046 13.0839 9.75006C13.0562 9.75003 13.0282 9.75 13 9.75H7C6.97176 9.75 6.9438 9.75003 6.91612 9.75006C6.53533 9.75046 6.2068 9.75081 5.91766 9.67333C5.1412 9.46528 4.53472 8.8588 4.32667 8.08234C4.24919 7.7932 4.24954 7.46468 4.24994 7.08389C4.24997 7.0562 4.25 7.02824 4.25 7C4.25 6.97176 4.24997 6.9438 4.24994 6.91612C4.24954 6.53533 4.24919 6.2068 4.32667 5.91766C4.53472 5.1412 5.1412 4.53472 5.91766 4.32667C6.2068 4.24919 6.53533 4.24954 6.91612 4.24994ZM7 5.75C6.48673 5.75 6.37722 5.75644 6.30589 5.77556C6.04707 5.84491 5.84491 6.04707 5.77556 6.30589C5.75644 6.37722 5.75 6.48673 5.75 7C5.75 7.51327 5.75644 7.62278 5.77556 7.69412C5.84491 7.95293 6.04707 8.1551 6.30589 8.22445C6.37722 8.24356 6.48673 8.25 7 8.25H13C13.5133 8.25 13.6228 8.24356 13.6941 8.22445C13.9529 8.1551 14.1551 7.95293 14.2244 7.69412C14.2436 7.62278 14.25 7.51327 14.25 7C14.25 6.48673 14.2436 6.37722 14.2244 6.30589C14.1551 6.04707 13.9529 5.84491 13.6941 5.77556C13.6228 5.75644 13.5133 5.75 13 5.75H7Z" fill="#9f4576"/>
<path d="M7 12C7 12.5523 6.55229 13 6 13C5.44772 13 5 12.5523 5 12C5 11.4477 5.44772 11 6 11C6.55229 11 7 11.4477 7 12Z" fill="#9f4576"/>
<path d="M7 16C7 16.5523 6.55229 17 6 17C5.44772 17 5 16.5523 5 16C5 15.4477 5.44772 15 6 15C6.55229 15 7 15.4477 7 16Z" fill="#9f4576"/>
<path d="M11 12C11 12.5523 10.5523 13 10 13C9.44772 13 9 12.5523 9 12C9 11.4477 9.44772 11 10 11C10.5523 11 11 11.4477 11 12Z" fill="#9f4576"/>
<path d="M11 16C11 16.5523 10.5523 17 10 17C9.44772 17 9 16.5523 9 16C9 15.4477 9.44772 15 10 15C10.5523 15 11 15.4477 11 16Z" fill="#9f4576"/>
<path d="M15 12C15 12.5523 14.5523 13 14 13C13.4477 13 13 12.5523 13 12C13 11.4477 13.4477 11 14 11C14.5523 11 15 11.4477 15 12Z" fill="#9f4576"/>
<path d="M15 16C15 16.5523 14.5523 17 14 17C13.4477 17 13 16.5523 13 16C13 15.4477 13.4477 15 14 15C14.5523 15 15 15.4477 15 16Z" fill="#9f4576"/>
</svg>
